<?xml version="1.0" standalone="no"?>
<!DOCTYPE svg PUBLIC "-//W3C//DTD SVG 20010904//EN"
 "http://www.w3.org/TR/2001/REC-SVG-20010904/DTD/svg10.dtd">
<svg version="1.0" xmlns="http://www.w3.org/2000/svg"
 width="408.000000pt" height="408.000000pt" viewBox="0 0 408.000000 408.000000"
 preserveAspectRatio="xMidYMid meet">
<metadata>
Created by potrace 1.11, written by Peter Selinger 2001-2013
</metadata>
<g transform="translate(0.000000,408.000000) scale(0.100000,-0.100000)"
fill="#000000" stroke="none">
<path d="M1779 4046 c-2 -2 -40 -7 -84 -10 -83 -7 -277 -33 -307 -42 -10 -3
-30 -7 -45 -10 -66 -11 -265 -68 -353 -101 -265 -98 -443 -228 -602 -440 -57
-77 -169 -274 -183 -323 -4 -14 -11 -29 -15 -35 -8 -11 -58 -155 -83 -240
-121 -402 -132 -1038 -25 -1485 138 -583 390 -924 818 -1107 222 -95 520 -167
785 -188 44 -4 96 -8 115 -11 43 -5 402 -5 450 0 19 2 72 7 117 10 46 4 91 9
100 10 10 2 41 7 68 10 28 4 73 11 100 16 28 5 64 12 80 15 17 2 86 20 155 39
458 125 725 323 913 676 47 88 116 253 138 330 7 25 14 50 15 55 12 38 54 212
59 243 3 20 7 44 10 52 5 20 14 90 30 230 12 110 13 583 2 640 -3 14 -8 52
-12 85 -4 32 -9 68 -11 80 -2 11 -6 34 -8 50 -2 17 -12 64 -21 105 -111 495
-331 853 -645 1052 -105 67 -363 174 -460 192 -14 2 -25 5 -25 6 0 1 -7 3 -15
5 -8 2 -55 12 -105 24 -49 11 -112 23 -140 27 -27 3 -57 8 -65 9 -9 2 -42 6
-75 10 -32 4 -72 10 -89 12 -38 6 -582 14 -587 9z m334 -165 l27 -1 0 -725 0
-726 -112 3 -113 3 0 720 0 720 35 5 c19 3 58 4 85 3 28 -1 62 -2 78 -2z
m-268 -34 c-19 -40 -191 -479 -328 -833 -113 -290 -252 -675 -285 -789 -21
-70 -56 -220 -66 -285 -3 -19 -7 -44 -10 -55 -6 -33 -21 -155 -31 -265 -4 -36
-8 -76 -10 -90 -2 -14 -6 -61 -10 -105 -4 -44 -8 -93 -10 -110 -7 -63 -18
-187 -30 -335 -2 -30 -7 -89 -11 -130 -3 -41 -8 -95 -9 -120 -3 -52 -14 -203
-20 -274 -2 -26 -6 -50 -9 -53 -2 -3 -36 14 -75 37 -243 141 -412 335 -520
595 -38 89 -86 250 -96 316 -4 24 -8 46 -10 49 -1 3 -6 28 -9 55 -4 28 -9 64
-12 80 -5 30 -8 75 -20 245 -13 180 -7 556 11 700 10 85 16 128 20 150 3 14 7
39 10 57 37 229 140 486 255 643 91 122 236 254 350 319 141 80 330 150 475
176 17 2 41 7 55 10 24 5 67 11 132 20 18 3 67 8 108 11 41 4 76 7 77 8 1 1
22 2 47 3 l45 1 -14 -31z m545 18 c325 -36 553 -102 739 -215 357 -214 550
-542 626 -1065 4 -22 8 -51 10 -64 27 -164 27 -721 -1 -956 -56 -479 -226
-819 -517 -1036 -78 -58 -205 -135 -211 -128 -2 2 -7 54 -10 114 -4 61 -9 128
-11 150 -3 22 -7 78 -10 125 -3 47 -8 101 -10 120 -2 19 -6 69 -9 110 -4 41
-8 93 -10 115 -2 22 -7 78 -11 125 -4 47 -8 92 -10 100 -2 8 -6 51 -9 95 -6
75 -9 102 -21 208 -2 23 -7 67 -10 97 -14 133 -56 344 -94 470 -29 99 -195
567 -221 625 -5 11 -61 153 -124 315 -63 162 -150 386 -195 498 -45 111 -81
204 -81 206 0 5 115 -1 190 -9z m-196 -1718 c40 -73 179 -351 231 -463 76
-164 195 -428 245 -544 18 -41 38 -88 45 -105 8 -16 32 -75 55 -130 23 -55 47
-113 55 -130 14 -32 148 -359 158 -386 10 -28 -204 -93 -419 -128 -241 -40
-498 -52 -744 -36 -108 7 -121 8 -230 20 -53 5 -239 40 -323 60 -27 6 -190 65
-195 70 -3 2 6 30 18 62 45 112 219 531 239 574 11 24 32 73 47 109 115 279
451 985 504 1060 l20 28 130 0 129 0 35 -61z"/>
</g>
</svg>
